<?xml version="1.0" encoding="utf-8"?>
<svg version="1.1" id="Слой_1" xmlns="http://www.w3.org/2000/svg" xmlns:xlink="http://www.w3.org/1999/xlink" x="0px" y="0px"
	 viewBox="0 0 2016 2016" style="enable-background:new 0 0 2016 2016;" xml:space="preserve">
<image style="overflow:visible;" width="100" height="100" xlink:href="clover100.png"  transform="matrix(1 0 0 1 102 94)">
</image>
<image style="overflow:visible;" width="100" height="100" xlink:href="clover100.png"  transform="matrix(0.7994 0.3662 -0.3662 0.7994 231.3369 277.6925)">
</image>
<image style="overflow:visible;" width="100" height="100" xlink:href="clover100.png"  transform="matrix(0.4811 -0.8767 0.8767 0.4811 590.1121 148.7796)">
</image>
<image style="overflow:visible;" width="100" height="100" xlink:href="clover100.png"  transform="matrix(1 0 0 1 576 541)">
</image>
<image style="overflow:visible;" width="100" height="100" xlink:href="clover100.png"  transform="matrix(0.4363 -0.686 0.686 0.4363 899.0136 243.5783)">
</image>
<image style="overflow:visible;" width="100" height="100" xlink:href="clover100.png"  transform="matrix(0.4608 -0.8875 0.8875 0.4608 1318.5837 662.3317)">
</image>
<image style="overflow:visible;" width="100" height="100" xlink:href="clover100.png"  transform="matrix(0.6538 -0.7567 0.7567 0.6538 1739.4769 349.4021)">
</image>
<image style="overflow:visible;" width="100" height="100" xlink:href="clover100.png"  transform="matrix(0.87 0 0 0.87 1036 504)">
</image>
<image style="overflow:visible;" width="100" height="100" xlink:href="clover100.png"  transform="matrix(0.9854 0.1705 -0.1705 0.9854 1377.0354 151.7919)">
</image>
<image style="overflow:visible;" width="100" height="100" xlink:href="clover100.png"  transform="matrix(0.7657 -0.107 0.107 0.7657 158.3651 572.8751)">
</image>
<image style="overflow:visible;" width="100" height="100" xlink:href="clover100.png"  transform="matrix(0.9949 -0.1009 0.1009 0.9949 349.2114 946.2987)">
</image>
<image style="overflow:visible;" width="100" height="100" xlink:href="clover100.png"  transform="matrix(-0.1816 -0.9834 0.9834 -0.1816 833.9094 944.4587)">
</image>
<image style="overflow:visible;" width="100" height="100" xlink:href="clover100.png"  transform="matrix(0.9258 0 0 0.9258 1276 1034.4163)">
</image>
<image style="overflow:visible;" width="100" height="100" xlink:href="clover100.png"  transform="matrix(1 0 0 1 849.0136 1295)">
</image>
<image style="overflow:visible;" width="100" height="100" xlink:href="clover100.png"  transform="matrix(0.8281 0.434 -0.434 0.8281 1725.8999 845.2688)">
</image>
<image style="overflow:visible;" width="100" height="100" xlink:href="clover100.png"  transform="matrix(0.6827 -0.7307 0.7307 0.6827 1545.3302 1511.4037)">
</image>
<image style="overflow:visible;" width="100" height="100" xlink:href="clover100.png"  transform="matrix(0.4504 -0.8929 0.8929 0.4504 134.8398 1521.1249)">
</image>
<image style="overflow:visible;" width="100" height="100" xlink:href="clover100.png"  transform="matrix(0.9552 -0.296 0.296 0.9552 497.4401 1624.0415)">
</image>
<image style="overflow:visible;" width="100" height="100" xlink:href="clover100.png"  transform="matrix(0.8602 0.5099 -0.5099 0.8602 1182.4861 1774.4926)">
</image>
</svg>
